<?xml version="1.0" encoding="utf-8"?>
<!-- Generator: Adobe Illustrator 22.1.0, SVG Export Plug-In . SVG Version: 6.00 Build 0)  -->
<svg version="1.1" id="Layer_1" xmlns="http://www.w3.org/2000/svg" xmlns:xlink="http://www.w3.org/1999/xlink" x="0px" y="0px"
	 viewBox="0 0 400 400" style="enable-background:new 0 0 400 400;" xml:space="preserve">
<style type="text/css">
	.st0{fill:#FFFFFF;}
	.st1{fill:url(#SVGID_1_);}
	.st2{fill:url(#SVGID_2_);}
	.st3{fill:url(#SVGID_3_);}
	.st4{fill:url(#SVGID_4_);}
	.st5{fill:url(#SVGID_5_);}
	.st6{fill:#5AC9EB;}
	.st7{fill:url(#SVGID_6_);}
	.st8{fill:url(#SVGID_7_);}
	.st9{fill:url(#SVGID_8_);}
	.st10{fill:url(#SVGID_9_);}
	.st11{fill:url(#SVGID_10_);}
	.st12{fill:url(#SVGID_11_);}
</style>
<g>
	<path class="st0" d="M320,400H80c-44.18,0-80-35.82-80-80V80C0,35.82,35.82,0,80,0h240c44.18,0,80,35.82,80,80v240
		C400,364.18,364.18,400,320,400z"/>
</g>
<linearGradient id="SVGID_1_" gradientUnits="userSpaceOnUse" x1="90.8786" y1="296.1319" x2="283.93" y2="111.9452" gradientTransform="matrix(1 0 0 -1 0 402)">
	<stop  offset="0" style="stop-color:#00A6E1"/>
	<stop  offset="1" style="stop-color:#235DAA"/>
</linearGradient>
<path class="st1" d="M269.98,235c-69.04,0-125-55.96-125-125c0-10.34,1.27-20.39,3.63-30h-28.72c0,0,0,0-0.01,0
	c-10.97,0.05-19.84,8.93-19.9,19.89c0,0,0,0-0.01,0.01v75.18c28.34,65.83,93.8,111.92,170,111.92c10.22,0,20.24-0.83,30-2.43v-53.2
	C290.38,233.74,280.33,235,269.98,235z"/>
<g>
	
		<linearGradient id="SVGID_2_" gradientUnits="userSpaceOnUse" x1="93.4249" y1="156.2024" x2="286.5994" y2="80.5424" gradientTransform="matrix(1 0 0 -1 0 402)">
		<stop  offset="0" style="stop-color:#0086C9"/>
		<stop  offset="1" style="stop-color:#483B96"/>
	</linearGradient>
	<path class="st2" d="M299.98,292.57v8.61c-0.29,5.06-2.46,9.61-5.82,12.96c-3.62,3.62-8.62,5.86-14.14,5.86H119.98
		c-5.52,0-10.52-2.24-14.14-5.86c-3.62-3.61-5.86-8.61-5.86-14.14V183.08c28.34,65.83,93.8,111.92,170,111.92
		C280.2,295,290.22,294.17,299.98,292.57z"/>
	
		<linearGradient id="SVGID_3_" gradientUnits="userSpaceOnUse" x1="129.2029" y1="299.2355" x2="276.9447" y2="147.3255" gradientTransform="matrix(1 0 0 -1 0 402)">
		<stop  offset="0" style="stop-color:#1D64AF"/>
		<stop  offset="1" style="stop-color:#235DAA"/>
	</linearGradient>
	<path class="st3" d="M299.98,231.37v9.67c-10.08,2.49-16.76,3.84-27.62,3.84c-72.49,0-127.25-64.76-127.25-137.25
		c0-10.86,1.7-16.31,3.5-27.62l0,0c-1.87,8.81-2.25,14.07-2.25,23.43c0,72.49,58.19,129.71,130.69,129.71
		C286.04,233.14,291.51,233.09,299.98,231.37z"/>
	
		<linearGradient id="SVGID_4_" gradientUnits="userSpaceOnUse" x1="131.1616" y1="301.2625" x2="274.2687" y2="154.1178" gradientTransform="matrix(1 0 0 -1 0 402)">
		<stop  offset="0" style="stop-color:#33C5F3"/>
		<stop  offset="1" style="stop-color:#4886C6"/>
	</linearGradient>
	<path class="st4" d="M299.98,228.5v2.87c-9.6,2.37-19.65,3.63-30,3.63c-69.04,0-125-55.96-125-125c0-10.34,1.27-20.39,3.63-30h4.09
		c-1.78,8.39-2.72,17.09-2.72,26c0,69.04,55.96,125,125,125C283.55,231,291.91,230.14,299.98,228.5z"/>
	
		<linearGradient id="SVGID_5_" gradientUnits="userSpaceOnUse" x1="151.5427" y1="315.3433" x2="290.5149" y2="172.3719" gradientTransform="matrix(1 0 0 -1 0 402)">
		<stop  offset="0" style="stop-color:#00B9F1"/>
		<stop  offset="1" style="stop-color:#406AB2"/>
	</linearGradient>
	<path class="st5" d="M299.98,167.67v60.83c-8.07,1.64-16.43,2.5-25,2.5c-69.04,0-125-55.96-125-125c0-8.91,0.94-17.61,2.72-26
		h59.62c-4.68,8.97-7.34,19.18-7.34,30c0,35.9,29.1,65,65,65C280.81,175,291.02,172.35,299.98,167.67z"/>
	<path class="st6" d="M299.98,140v13.74l-44.88-14.36c-0.02,0-0.04-0.01-0.06-0.01c-0.74-0.19-1.46-0.42-2.16-0.7
		c-7.54-2.87-12.9-10.18-12.9-18.73V80L299.98,140z"/>
	
		<linearGradient id="SVGID_6_" gradientUnits="userSpaceOnUse" x1="205.61" y1="271.805" x2="299.98" y2="271.805" gradientTransform="matrix(1 0 0 -1 0 402)">
		<stop  offset="0" style="stop-color:#406AB2"/>
		<stop  offset="1" style="stop-color:#3873B8"/>
	</linearGradient>
	<path class="st7" d="M274,174.23c10.12,0,17.35-2.6,25.98-6.56v4.62c-9.41,4.91-17.75,8.09-29.12,8.09
		c-37.7,0-65.25-33.56-65.25-71.25c0-11.36,4.98-18.11,7.71-29.12l0,0c-3.96,8.63-6.56,15.86-6.56,25.98
		C206.75,143.67,236.31,174.23,274,174.23z"/>
	<path class="st6" d="M272.98,172c9.64,0,18.79-2.1,27-5.87v1.54c-8.96,4.68-19.17,7.33-30,7.33c-35.9,0-65-29.1-65-65
		c0-10.82,2.66-21.03,7.34-30h1.54c-3.77,8.22-5.88,17.37-5.88,27C207.98,142.9,237.08,172,272.98,172z"/>
	
		<linearGradient id="SVGID_7_" gradientUnits="userSpaceOnUse" x1="208.4325" y1="308.7417" x2="291.4159" y2="231.757" gradientTransform="matrix(1 0 0 -1 0 402)">
		<stop  offset="0" style="stop-color:#33C5F3"/>
		<stop  offset="1" style="stop-color:#4886C6"/>
	</linearGradient>
	<path class="st8" d="M299.98,153.74v12.39c-8.21,3.77-17.36,5.87-27,5.87c-35.9,0-65-29.1-65-65c0-9.63,2.11-18.78,5.88-27h26.12
		v39.94c0,8.55,5.36,15.86,12.9,18.73c0.7,0.28,1.42,0.51,2.16,0.7c0.02,0,0.04,0.01,0.06,0.01L299.98,153.74z"/>
	
		<linearGradient id="SVGID_8_" gradientUnits="userSpaceOnUse" x1="254.527" y1="268.8062" x2="301.9159" y2="254.5538" gradientTransform="matrix(1 0 0 -1 0 402)">
		<stop  offset="0" style="stop-color:#0086C9"/>
		<stop  offset="1" style="stop-color:#483B96"/>
	</linearGradient>
	<path class="st9" d="M300.02,140v13.75l-0.04-0.01l-44.88-14.36c-0.02,0-0.04-0.01-0.06-0.01l-2.16-0.7l47.1,1.33L300.02,140
		L300.02,140z"/>
	<g>
		
			<linearGradient id="SVGID_9_" gradientUnits="userSpaceOnUse" x1="229.3945" y1="308.4646" x2="291.8965" y2="245.9626" gradientTransform="matrix(1 0 0 -1 0 402)">
			<stop  offset="1.244638e-03" style="stop-color:#97D9F5"/>
			<stop  offset="1" style="stop-color:#0095D0"/>
		</linearGradient>
		<path class="st10" d="M299.98,140h-39.93c-1.71,0-3.37-0.21-4.95-0.62c-0.02,0-0.04-0.01-0.06-0.01c-0.74-0.19-1.46-0.42-2.16-0.7
			c-7.54-2.87-12.9-10.18-12.9-18.73V80L299.98,140z"/>
	</g>
	
		<linearGradient id="SVGID_10_" gradientUnits="userSpaceOnUse" x1="90.4563" y1="201.3395" x2="287.9965" y2="89.5996" gradientTransform="matrix(1 0 0 -1 0 402)">
		<stop  offset="0" style="stop-color:#483B96"/>
		<stop  offset="1" style="stop-color:#45439A"/>
	</linearGradient>
	<path class="st11" d="M269.98,294c-76.2,0-141.66-45.09-170-110.92l0,0c27.17,71.47,93.8,118.92,170,118.92
		c10.22,0,20.24-0.83,30-2.43v-7C290.22,294.17,280.2,294,269.98,294z"/>
	
		<linearGradient id="SVGID_11_" gradientUnits="userSpaceOnUse" x1="90.08" y1="208.6727" x2="288.0404" y2="96.6951" gradientTransform="matrix(1 0 0 -1 0 402)">
		<stop  offset="0" style="stop-color:#329FD9"/>
		<stop  offset="1" style="stop-color:#2A76B2"/>
	</linearGradient>
	<path class="st12" d="M269.98,287c-76.2,0-141.66-46.09-170-111.92v8c28.34,65.83,93.8,111.92,170,111.92
		c10.22,0,20.24-0.83,30-2.43v-8C290.22,286.17,280.2,287,269.98,287z"/>
</g>
</svg>
